<svg width="1280" height="409" viewBox="0 0 1280 409" fill="none" xmlns="http://www.w3.org/2000/svg">
<g clip-path="url(#clip0_23201_493)">
<path d="M943.271 53.8335C957.314 59.685 970.576 66.7067 983.448 74.8988C1069.65 128.732 1124.26 233.669 1108.27 333.925C1091.89 435.74 984.228 580.467 877.74 601.532C843.024 608.554 807.528 598.802 773.593 588.269C716.643 570.715 663.204 542.237 607.034 525.853C585.191 519.612 561.397 518.051 540.333 526.633C503.667 541.457 494.695 573.445 479.093 605.824C461.54 642.493 431.895 673.311 396.008 692.426C322.286 731.435 227.11 713.101 158.848 670.97C57.431 608.554 21.1549 485.673 54.7006 374.105C63.2821 345.237 76.9344 316.76 99.5582 296.475C138.175 261.366 196.295 255.125 247.003 267.998C282.109 276.97 314.095 294.134 344.52 312.859C369.484 328.463 392.498 349.919 423.313 349.919C485.724 350.309 504.837 269.948 524.73 225.087C550.865 165.792 594.942 113.909 649.552 79.1899C737.707 22.6256 847.315 12.8731 943.271 53.8335Z" fill="url(#paint0_linear_23201_493)"/>
<path d="M943.304 54.0706C957.34 59.9209 970.596 66.9412 983.462 75.1316C1069.63 128.954 1124.21 233.87 1108.22 334.105C1091.85 435.9 984.242 580.597 877.803 601.658C843.104 608.678 807.624 598.928 773.704 588.397C716.781 570.847 663.367 542.375 607.224 525.994C585.39 519.754 561.607 518.194 540.553 526.774C503.904 541.595 494.937 573.577 479.342 605.948C461.797 642.61 432.166 673.422 396.296 692.533C322.608 731.535 227.476 713.204 159.247 671.082C57.8768 608.678 21.6177 485.822 55.1477 374.277C63.7251 345.415 77.3711 316.944 99.9844 296.663C138.583 261.561 196.676 255.321 247.361 268.191C282.45 277.162 314.421 294.323 344.832 313.044C369.784 328.644 392.787 350.095 423.588 350.095C485.97 350.485 505.074 270.141 524.958 225.289C551.08 166.006 595.137 114.134 649.721 79.4218C737.835 22.869 847.392 13.1185 943.304 54.0706Z" fill="url(#paint1_radial_23201_493)"/>
<path d="M24.6655 855.097C-151.644 722.073 -48.667 429.109 121.012 339.386C184.593 305.837 258.705 292.964 330.087 302.326C394.448 310.909 474.802 332.754 540.723 307.788C590.652 288.673 613.666 241.471 639.8 198.56C712.352 79.1899 895.293 56.9542 986.179 170.083C1019.72 211.824 1033.38 269.948 1016.99 321.051C978.377 439.641 848.875 388.928 775.543 452.515C746.288 477.871 738.487 528.584 721.324 562.523C703.771 597.241 682.317 630.4 659.303 661.998C610.935 728.705 552.035 789.56 484.164 836.762C348.811 931.166 179.522 959.253 36.3675 863.679C32.4668 860.948 28.5661 858.218 24.6655 855.097Z" fill="url(#paint2_linear_23201_493)"/>
<path d="M24.6655 855.097C-151.644 722.073 -48.667 429.109 121.012 339.386C184.593 305.837 258.705 292.964 330.087 302.326C394.448 310.909 474.802 332.754 540.723 307.788C590.652 288.673 613.666 241.471 639.8 198.56C712.352 79.1899 895.293 56.9542 986.179 170.083C1019.72 211.824 1033.38 269.948 1016.99 321.051C978.377 439.641 848.875 388.928 775.543 452.515C746.288 477.871 738.487 528.584 721.324 562.523C703.771 597.241 682.317 630.4 659.303 661.998C610.935 728.705 552.035 789.56 484.164 836.762C348.811 931.166 179.522 959.253 36.3675 863.679C32.4668 860.948 28.5661 858.218 24.6655 855.097Z" fill="url(#paint3_radial_23201_493)"/>
<path d="M455.5 209C438.103 209 424 194.897 424 177.5C424 160.103 438.103 146 455.5 146C472.897 146 487 160.103 487 177.5C487 194.897 472.897 209 455.5 209Z" fill="url(#paint4_linear_23201_493)"/>
</g>
<g clip-path="url(#clip1_23201_493)">
<path d="M1144.8 43.2984C1160.23 49.6686 1174.81 57.3128 1188.95 66.2311C1283.68 124.837 1343.69 239.075 1326.12 348.218C1308.12 459.059 1189.81 616.614 1072.79 639.547C1034.64 647.191 995.628 636.574 958.335 625.108C895.752 605.997 837.026 574.996 775.3 557.159C751.296 550.364 725.148 548.666 702 558.009C661.707 574.146 651.848 608.97 634.702 644.218C615.412 684.138 582.835 717.688 543.399 738.497C462.383 780.965 357.792 761.005 282.777 715.14C171.327 647.191 131.463 513.417 168.327 391.959C177.757 360.533 192.76 329.532 217.622 307.448C260.059 269.227 323.928 262.432 379.653 276.447C418.232 286.214 453.381 304.9 486.816 325.285C514.25 342.272 539.541 365.629 573.404 365.629C641.989 366.054 662.993 278.57 684.854 229.732C713.574 165.181 762.012 108.699 822.023 70.9025C918.899 9.32416 1039.35 -1.2928 1144.8 43.2984Z" fill="url(#paint5_linear_23201_493)"/>
<path d="M1144.84 43.5566C1160.26 49.9254 1174.83 57.5681 1188.97 66.4845C1283.65 125.078 1343.64 239.293 1326.07 348.414C1308.08 459.232 1189.82 616.756 1072.86 639.684C1034.72 647.326 995.734 636.712 958.458 625.248C895.904 606.141 837.206 575.146 775.509 557.313C751.515 550.519 725.38 548.821 702.243 558.162C661.969 574.297 652.114 609.113 634.976 644.354C615.696 684.266 583.133 717.809 543.716 738.614C462.738 781.073 358.195 761.117 283.216 715.261C171.818 647.326 131.972 513.58 168.819 392.147C178.245 360.727 193.241 329.732 218.091 307.653C260.508 269.439 324.347 262.646 380.046 276.658C418.607 286.423 453.74 305.105 487.16 325.486C514.581 342.469 539.859 365.822 573.707 365.822C642.26 366.246 663.254 278.781 685.105 229.952C713.812 165.414 762.227 108.944 822.21 71.155C919.041 9.58919 1039.44 -1.02561 1144.84 43.5566Z" fill="url(#paint6_radial_23201_493)"/>
<path d="M135.32 915.588C-58.4312 770.773 54.7333 451.839 241.198 354.163C311.068 317.641 392.512 303.626 470.956 313.819C541.684 323.161 629.986 346.943 702.429 319.764C757.296 298.955 782.587 247.569 811.307 200.854C891.036 70.9025 1092.07 46.6958 1191.95 169.853C1228.82 215.293 1243.82 278.57 1225.81 334.203C1183.38 463.305 1041.06 408.097 960.478 477.32C928.329 504.924 919.756 560.132 900.895 597.079C881.606 634.875 858.03 670.973 832.739 705.372C779.586 777.992 714.86 844.242 640.274 895.628C491.531 998.4 305.496 1028.98 148.18 924.931C143.893 921.958 139.607 918.985 135.32 915.588Z" fill="url(#paint7_linear_23201_493)"/>
<path d="M135.32 915.588C-58.4312 770.773 54.7333 451.839 241.198 354.163C311.068 317.641 392.512 303.626 470.956 313.819C541.684 323.161 629.986 346.943 702.429 319.764C757.296 298.955 782.587 247.569 811.307 200.854C891.036 70.9025 1092.07 46.6958 1191.95 169.853C1228.82 215.293 1243.82 278.57 1225.81 334.203C1183.38 463.305 1041.06 408.097 960.478 477.32C928.329 504.924 919.756 560.132 900.895 597.079C881.606 634.875 858.03 670.973 832.739 705.372C779.586 777.992 714.86 844.242 640.274 895.628C491.531 998.4 305.496 1028.98 148.18 924.931C143.893 921.958 139.607 918.985 135.32 915.588Z" fill="url(#paint8_radial_23201_493)"/>
</g>
<defs>
<linearGradient id="paint0_linear_23201_493" x1="-17.1521" y1="727.246" x2="1460.73" y2="-79.8282" gradientUnits="userSpaceOnUse">
<stop stop-color="#FF9370"/>
<stop offset="1" stop-color="#FFDF00"/>
</linearGradient>
<radialGradient id="paint1_radial_23201_493" cx="0" cy="0" r="1" gradientUnits="userSpaceOnUse" gradientTransform="translate(581.764 -77.0703) rotate(79.7207) scale(1206.28 1124.64)">
<stop stop-color="#FEBB40"/>
<stop offset="0.5576" stop-color="#EC4C76"/>
<stop offset="0.9726" stop-color="#D60B52"/>
</radialGradient>
<linearGradient id="paint2_linear_23201_493" x1="1003.01" y1="-400.149" x2="54.8375" y2="1116.36" gradientUnits="userSpaceOnUse">
<stop stop-color="#FFDF00"/>
<stop offset="1" stop-color="#FF9370"/>
</linearGradient>
<radialGradient id="paint3_radial_23201_493" cx="0" cy="0" r="1" gradientUnits="userSpaceOnUse" gradientTransform="translate(726.435 162.015) rotate(-122.48) scale(1284.19 2158.72)">
<stop stop-color="#FEBB40"/>
<stop offset="0.5576" stop-color="#EC4C76"/>
<stop offset="0.9726" stop-color="#D60B52"/>
</radialGradient>
<linearGradient id="paint4_linear_23201_493" x1="381.913" y1="229.344" x2="532.113" y2="123.255" gradientUnits="userSpaceOnUse">
<stop stop-color="#EC4C76"/>
<stop offset="0.5183" stop-color="#FEBB40"/>
<stop offset="1" stop-color="white"/>
</linearGradient>
<linearGradient id="paint5_linear_23201_493" x1="89.3663" y1="776.404" x2="1706.4" y2="-115" gradientUnits="userSpaceOnUse">
<stop stop-color="#FF9370"/>
<stop offset="1" stop-color="#FFDF00"/>
</linearGradient>
<radialGradient id="paint6_radial_23201_493" cx="0" cy="0" r="1" gradientUnits="userSpaceOnUse" gradientTransform="translate(747.531 -99.209) rotate(79.6257) scale(1313.6 1235.52)">
<stop stop-color="#FEBB40"/>
<stop offset="0.5576" stop-color="#EC4C76"/>
<stop offset="0.9726" stop-color="#D60B52"/>
</radialGradient>
<linearGradient id="paint7_linear_23201_493" x1="1210.45" y1="-450.926" x2="182.503" y2="1208.7" gradientUnits="userSpaceOnUse">
<stop stop-color="#FFDF00"/>
<stop offset="1" stop-color="#FF9370"/>
</linearGradient>
<radialGradient id="paint8_radial_23201_493" cx="0" cy="0" r="1" gradientUnits="userSpaceOnUse" gradientTransform="translate(906.512 161.069) rotate(-122.724) scale(1401.84 2365.81)">
<stop stop-color="#FEBB40"/>
<stop offset="0.5576" stop-color="#EC4C76"/>
<stop offset="0.9726" stop-color="#D60B52"/>
</radialGradient>
<clipPath id="clip0_23201_493">
<rect width="1178" height="538" fill="white" transform="matrix(-1 0 0 1 1111 0)"/>
</clipPath>
<clipPath id="clip1_23201_493">
<rect width="511" height="393" fill="white" transform="translate(818 16)"/>
</clipPath>
</defs>
</svg>
