<svg width="92" height="89" viewBox="0 0 92 89" fill="none" xmlns="http://www.w3.org/2000/svg">
<path fill-rule="evenodd" clip-rule="evenodd" d="M64.107 0.572811C72.7914 -1.70736 82.524 3.08273 87.4363 10.2815C92.1302 17.0424 93.4074 26.5724 90.0368 34.1453C88.8067 36.8221 86.8428 39.1899 84.9479 41.4745C84.6547 41.8279 84.3632 42.1794 84.0763 42.5297C81.5479 45.7882 79.1608 49.3944 77.6881 53.155C76.1097 57.1345 75.5609 61.4571 75.023 65.694C74.9533 66.2426 74.8838 66.7898 74.8123 67.3346C74.5385 69.1346 74.2647 70.9346 74.0155 72.7365C74.0354 74.8873 73.7948 77.0374 73.2367 79.1069C72.8688 81.692 72.1924 84.2352 70.5529 86.2922C69.0466 88.2735 66.8396 88.989 64.5339 88.9557C63.8492 89.037 63.1341 89.0086 62.3918 88.8483C61.4693 88.6712 60.5999 88.367 59.7739 87.9706C59.5365 87.8796 59.3031 87.7838 59.0743 87.6839C55.3452 86.0139 52.2722 83.1981 49.9128 79.8941C48.8889 78.9974 47.8577 78.1079 46.8265 77.2184C46.4179 76.8511 46.0093 76.4806 45.5996 76.1092C42.4353 73.2408 39.207 70.3142 35.4199 68.3179C31.8553 66.4192 27.6967 65.2324 23.6569 64.4017C23.2111 64.3222 22.7611 64.2448 22.3085 64.167C19.3833 63.6641 16.3515 63.1429 13.6761 61.9096C6.19049 58.3494 0.962444 50.2796 0.130712 42.0912C-0.819839 33.4281 3.45765 23.4596 11.5373 19.5434C19.8546 15.5085 30.0731 18.0006 37.9151 21.6795C39.7383 22.5072 41.5507 23.4287 43.3334 24.4378C43.98 22.6979 44.6913 20.9981 45.4596 19.3512C49.0238 11.4564 55.1649 2.91739 64.107 0.572811Z" fill="url(#paint0_linear_101_599)"/>
<defs>
<linearGradient id="paint0_linear_101_599" x1="86.5092" y1="39.8964" x2="-54.2205" y2="71.6348" gradientUnits="userSpaceOnUse">
<stop stop-color="#EC4C76"/>
<stop offset="0.5183" stop-color="#FEBB40"/>
<stop offset="1" stop-color="white"/>
</linearGradient>
</defs>
</svg>
